<?xml version="1.0" encoding="UTF-8"?>
<svg width="256px" height="154px" viewBox="0 0 256 154" version="1.1" xmlns="http://www.w3.org/2000/svg" xmlns:xlink="http://www.w3.org/1999/xlink">
    <title>Logotipo / Versión 3</title>
    <g id="Logotipo-/-Versión-3" stroke="none" stroke-width="1" fill="none" fill-rule="evenodd">
        <g id="Group-376" transform="translate(38.826000, 50.087000)" fill="#FFFFFF">
            <path d="M42.3008,45.0844 C41.6298,45.6374 40.8898,46.1764 40.0838,46.7074 C38.6718,47.6584 37.2158,48.4434 35.7158,49.0604 C34.1018,49.7454 32.5218,50.2324 30.9758,50.5194 C29.3628,50.8514 27.6598,51.0164 25.8668,51.0164 C22.3938,51.0164 19.1558,50.4094 16.1528,49.1924 C13.1518,47.9774 10.4178,46.1444 7.9538,43.6924 C5.4218,41.2174 3.5618,38.5094 2.3748,35.5714 C1.1408,32.6984 0.5258,29.5064 0.5258,25.9934 C0.5258,22.5034 1.1408,19.3094 2.3748,16.4144 C3.5618,13.5194 5.4218,10.8024 7.9538,8.2624 C10.4618,5.7874 13.1968,3.9424 16.1528,2.7264 C18.3288,1.8434 20.6578,1.2794 23.1458,1.0354 L25.8348,1.0354 C27.5598,1.0354 29.2618,1.1914 30.9418,1.4994 C32.5548,1.8314 34.1338,2.3284 35.6808,2.9904 C37.2728,3.6984 38.7278,4.4834 40.0498,5.3444 C40.8578,5.8964 41.5958,6.4384 42.2688,6.9684 L37.4618,11.7084 C36.0968,10.6034 34.6058,9.7084 32.9918,9.0234 C30.7738,8.1184 28.4088,7.6644 25.8998,7.6644 C23.3918,7.6644 21.0158,8.1184 18.7758,9.0234 C16.5578,9.9734 14.5628,11.3214 12.7928,13.0674 C11.0008,14.8344 9.6448,16.8124 8.7258,19.0004 L8.6918,19.0004 C7.7968,21.1644 7.3478,23.5074 7.3478,26.0264 C7.3478,28.5904 7.7968,30.9434 8.6918,33.0864 C9.6328,35.2734 11.0008,37.2404 12.7928,38.9864 C14.5188,40.7534 16.5118,42.0914 18.7758,42.9964 C21.0158,43.9024 23.3918,44.3544 25.8998,44.3544 C28.4088,44.3544 30.7968,43.9024 33.0588,42.9964 C34.7388,42.3114 36.2308,41.4264 37.5298,40.3444 C37.5298,40.3444 38.7388,39.3734 39.5018,38.5764 L42.3008,45.0844 Z" id="Fill-372"></path>
            <path d="M89.1311,50.7315 L82.0711,50.7315 L78.4251,42.6135 L67.9341,42.6135 L57.4781,42.6135 L53.8331,50.7315 L46.7731,50.7315 L67.9521,0.9835 L89.1311,50.7315 Z M67.9341,37.3105 L76.0051,37.3105 C74.6581,34.2175 73.3151,30.8905 71.9801,27.3335 C70.6411,23.7765 69.3111,20.4395 67.9851,17.3255 C66.6381,20.4395 65.2831,23.7765 63.9241,27.3335 C62.5651,30.8905 61.2251,34.2175 59.8981,37.3105 L67.9341,37.3105 Z" id="Fill-374"></path>
        </g>
        <polygon id="Fill-377" fill="#FFFFFF" points="156.4752 87.8934 180.5692 51.0054 180.5692 100.8184 173.9752 100.8184 173.9752 72.8134 156.4752 99.6924 138.9742 72.8134 138.9742 100.8184 132.3792 100.8184 132.3792 51.0054"></polygon>
        <polygon id="Fill-378" fill="#FFFFFF" points="215.765 51.4356 215.765 57.9986 195.842 57.9986 193.787 57.9986 193.787 60.0536 193.787 70.8256 193.787 72.9126 195.842 72.9126 211.246 72.9126 211.246 79.4756 195.842 79.4756 193.787 79.4756 193.787 81.5306 193.787 92.3026 193.787 94.3906 195.842 94.3906 215.765 94.3906 215.765 100.9506 195.842 100.9506 187.191 100.9506 187.191 51.4356"></polygon>
        <path d="M165.2591,35.9887 C165.2591,40.8537 161.3151,44.7967 156.4511,44.7967 C151.5841,44.7967 147.6411,40.8537 147.6411,35.9887 C147.6411,31.1237 151.5841,27.1797 156.4511,27.1797 C161.3151,27.1797 165.2591,31.1237 165.2591,35.9887" id="Fill-379" fill="#FFFFFF"></path>
        <polygon id="Fill-381" fill="#E51F2B" points="136.4312 49.2204 176.4902 49.2204 156.4632 79.8594"></polygon>
        <path d="M42.5218,116.6668 C42.5438,117.0658 42.6338,117.3898 42.7938,117.6388 C43.0988,118.1048 43.6348,118.3378 44.4038,118.3378 C44.7488,118.3378 45.0618,118.2868 45.3448,118.1848 C45.8928,117.9868 46.1668,117.6328 46.1668,117.1218 C46.1668,116.7388 46.0508,116.4658 45.8188,116.3028 C45.5838,116.1428 45.2148,116.0038 44.7138,115.8858 L43.7908,115.6708 C43.1878,115.5298 42.7608,115.3758 42.5108,115.2058 C42.0768,114.9118 41.8608,114.4738 41.8608,113.8888 C41.8608,113.2568 42.0738,112.7378 42.4998,112.3328 C42.9248,111.9278 43.5278,111.7248 44.3078,111.7248 C45.0248,111.7248 45.6348,111.9028 46.1368,112.2578 C46.6388,112.6148 46.8888,113.1838 46.8888,113.9658 L45.9938,113.9658 C45.9478,113.5888 45.8498,113.2998 45.6998,113.0988 C45.4218,112.7318 44.9488,112.5478 44.2818,112.5478 C43.7428,112.5478 43.3548,112.6658 43.1198,112.9028 C42.8838,113.1388 42.7658,113.4138 42.7658,113.7258 C42.7658,114.0708 42.9058,114.3228 43.1838,114.4828 C43.3658,114.5848 43.7798,114.7128 44.4228,114.8658 L45.3788,115.0908 C45.8398,115.1998 46.1948,115.3478 46.4458,115.5368 C46.8788,115.8648 47.0948,116.3428 47.0948,116.9688 C47.0948,117.7478 46.8188,118.3048 46.2668,118.6398 C45.7138,118.9748 45.0718,119.1428 44.3398,119.1428 C43.4868,119.1428 42.8188,118.9198 42.3358,118.4718 C41.8538,118.0288 41.6168,117.4268 41.6258,116.6668 L42.5218,116.6668 Z" id="Fill-382" fill="#FFFFFF"></path>
        <polygon id="Fill-384" fill="#FFFFFF" points="51.0921 111.9017 56.1971 111.9017 56.1971 112.7637 52.0211 112.7637 52.0211 114.8997 55.8811 114.8997 55.8811 115.7137 52.0211 115.7137 52.0211 118.0987 56.2691 118.0987 56.2691 118.9367 51.0921 118.9367"></polygon>
        <path d="M60.1224,111.9017 L63.3204,111.9017 C63.8464,111.9017 64.2814,111.9797 64.6234,112.1367 C65.2724,112.4367 65.5964,112.9907 65.5964,113.7977 C65.5964,114.2197 65.5094,114.5647 65.3354,114.8327 C65.1614,115.1007 64.9184,115.3167 64.6054,115.4787 C64.8794,115.5907 65.0864,115.7377 65.2254,115.9197 C65.3644,116.1017 65.4414,116.3967 65.4574,116.8057 L65.4914,117.7487 C65.5004,118.0177 65.5234,118.2167 65.5584,118.3477 C65.6154,118.5707 65.7174,118.7147 65.8644,118.7787 L65.8644,118.9367 L64.6964,118.9367 C64.6644,118.8767 64.6384,118.7977 64.6194,118.7017 C64.6004,118.6067 64.5844,118.4217 64.5714,118.1467 L64.5144,116.9737 C64.4924,116.5137 64.3264,116.2057 64.0164,116.0487 C63.8394,115.9627 63.5614,115.9197 63.1834,115.9197 L61.0754,115.9197 L61.0754,118.9367 L60.1224,118.9367 L60.1224,111.9017 Z M63.2184,115.1247 C63.6524,115.1247 63.9964,115.0357 64.2494,114.8567 C64.5024,114.6777 64.6294,114.3557 64.6294,113.8887 C64.6294,113.3877 64.4524,113.0467 64.0984,112.8647 C63.9084,112.7687 63.6554,112.7207 63.3394,112.7207 L61.0754,112.7207 L61.0754,115.1247 L63.2184,115.1247 Z" id="Fill-385" fill="#FFFFFF"></path>
        <polygon id="Fill-387" fill="#FFFFFF" points="70.0223 111.9017 72.0433 117.8927 74.0403 111.9017 75.1083 111.9017 72.5413 118.9367 71.5313 118.9367 68.9693 111.9017"></polygon>
        <polygon id="Fill-388" fill="#FFFFFF" points="78.771 118.937 79.733 118.937 79.733 111.902 78.771 111.902"></polygon>
        <path d="M88.9395,112.4141 C89.4255,112.8831 89.6955,113.4171 89.7495,114.0141 L88.8195,114.0141 C88.7165,113.5601 88.5105,113.2011 88.2015,112.9361 C87.8925,112.6711 87.4595,112.5381 86.9005,112.5381 C86.2205,112.5381 85.6705,112.7821 85.2525,113.2701 C84.8335,113.7571 84.6245,114.5041 84.6245,115.5101 C84.6245,116.3351 84.8135,117.0031 85.1915,117.5161 C85.5695,118.0291 86.1335,118.2851 86.8825,118.2851 C87.5725,118.2851 88.0985,118.0151 88.4585,117.4761 C88.6495,117.1921 88.7935,116.8181 88.8875,116.3561 L89.8155,116.3561 C89.7335,117.0961 89.4625,117.7171 89.0015,118.2181 C88.4495,118.8221 87.7045,119.1241 86.7675,119.1241 C85.9595,119.1241 85.2805,118.8761 84.7315,118.3811 C84.0095,117.7261 83.6475,116.7151 83.6475,115.3471 C83.6475,114.3091 83.9185,113.4581 84.4615,112.7931 C85.0485,112.0711 85.8585,111.7101 86.8895,111.7101 C87.7705,111.7101 88.4535,111.9451 88.9395,112.4141" id="Fill-389" fill="#FFFFFF"></path>
        <polygon id="Fill-391" fill="#FFFFFF" points="93.773 118.937 94.736 118.937 94.736 111.902 93.773 111.902"></polygon>
        <g id="Group-396" transform="translate(97.826000, 111.087000)" fill="#FFFFFF">
            <path d="M6.9546,1.8204 C7.4206,2.4434 7.6536,3.2394 7.6536,4.2104 C7.6536,5.2604 7.3876,6.1334 6.8536,6.8294 C6.2286,7.6474 5.3356,8.0554 4.1766,8.0554 C3.0946,8.0554 2.2436,7.6984 1.6246,6.9834 C1.0716,6.2934 0.7956,5.4214 0.7956,4.3684 C0.7956,3.4164 1.0316,2.6024 1.5046,1.9254 C2.1106,1.0574 3.0086,0.6234 4.1956,0.6234 C5.4376,0.6234 6.3576,1.0224 6.9546,1.8204 M6.1136,6.3044 C6.4896,5.7024 6.6766,5.0094 6.6766,4.2264 C6.6766,3.3994 6.4606,2.7334 6.0276,2.2284 C5.5956,1.7234 5.0036,1.4704 4.2536,1.4704 C3.5256,1.4704 2.9316,1.7204 2.4726,2.2204 C2.0126,2.7214 1.7826,3.4584 1.7826,4.4334 C1.7826,5.2124 1.9796,5.8704 2.3736,6.4054 C2.7676,6.9404 3.4076,7.2084 4.2916,7.2084 C5.1316,7.2084 5.7386,6.9074 6.1136,6.3044" id="Fill-392"></path>
            <path d="M12.0212,5.5798 C12.0432,5.9788 12.1332,6.3028 12.2932,6.5518 C12.5972,7.0178 13.1352,7.2508 13.9032,7.2508 C14.2482,7.2508 14.5612,7.1998 14.8442,7.0978 C15.3922,6.8998 15.6662,6.5458 15.6662,6.0348 C15.6662,5.6518 15.5492,5.3788 15.3182,5.2158 C15.0832,5.0558 14.7142,4.9168 14.2132,4.7988 L13.2902,4.5838 C12.6872,4.4428 12.2602,4.2888 12.0102,4.1188 C11.5762,3.8248 11.3602,3.3868 11.3602,2.8018 C11.3602,2.1698 11.5732,1.6508 11.9992,1.2458 C12.4242,0.8408 13.0272,0.6378 13.8072,0.6378 C14.5242,0.6378 15.1342,0.8158 15.6362,1.1708 C16.1382,1.5278 16.3882,2.0968 16.3882,2.8788 L15.4932,2.8788 C15.4472,2.5018 15.3492,2.2128 15.1992,2.0118 C14.9212,1.6448 14.4482,1.4608 13.7812,1.4608 C13.2422,1.4608 12.8542,1.5788 12.6192,1.8158 C12.3832,2.0518 12.2652,2.3268 12.2652,2.6388 C12.2652,2.9838 12.4042,3.2358 12.6832,3.3958 C12.8652,3.4978 13.2782,3.6258 13.9222,3.7788 L14.8782,4.0038 C15.3392,4.1128 15.6942,4.2608 15.9452,4.4498 C16.3782,4.7778 16.5952,5.2558 16.5952,5.8818 C16.5952,6.6608 16.3182,7.2178 15.7662,7.5528 C15.2132,7.8878 14.5712,8.0558 13.8392,8.0558 C12.9862,8.0558 12.3182,7.8328 11.8352,7.3848 C11.3532,6.9418 11.1162,6.3398 11.1252,5.5798 L12.0212,5.5798 Z" id="Fill-394"></path>
        </g>
        <polygon id="Fill-397" fill="#FFFFFF" points="124.095 111.9017 128.975 111.9017 128.975 112.7637 125.048 112.7637 125.048 114.8997 128.501 114.8997 128.501 115.7377 125.048 115.7377 125.048 118.9367 124.095 118.9367"></polygon>
        <polygon id="Fill-398" fill="#FFFFFF" points="132.701 118.937 133.664 118.937 133.664 111.902 132.701 111.902"></polygon>
        <polygon id="Fill-399" fill="#FFFFFF" points="137.877 111.9017 139 111.9017 142.508 117.5857 142.508 111.9017 143.418 111.9017 143.418 118.9367 142.347 118.9367 138.787 113.2597 138.787 118.9367 137.877 118.9367"></polygon>
        <path d="M149.6514,111.9017 L150.7274,111.9017 L153.2804,118.9367 L152.2364,118.9367 L151.5024,116.8297 L148.7424,116.8297 L147.9794,118.9367 L147.0024,118.9367 L149.6514,111.9017 Z M151.2324,116.0537 L150.1484,112.9457 L149.0234,116.0537 L151.2324,116.0537 Z" id="Fill-400" fill="#FFFFFF"></path>
        <polygon id="Fill-401" fill="#FFFFFF" points="156.8189 111.9017 157.9419 111.9017 161.4499 117.5857 161.4499 111.9017 162.3599 111.9017 162.3599 118.9367 161.2889 118.9367 157.7289 113.2597 157.7289 118.9367 156.8189 118.9367"></polygon>
        <path d="M171.5513,112.4141 C172.0373,112.8831 172.3073,113.4171 172.3613,114.0141 L171.4313,114.0141 C171.3283,113.5601 171.1223,113.2011 170.8133,112.9361 C170.5043,112.6711 170.0713,112.5381 169.5123,112.5381 C168.8323,112.5381 168.2823,112.7821 167.8643,113.2701 C167.4453,113.7571 167.2363,114.5041 167.2363,115.5101 C167.2363,116.3351 167.4253,117.0031 167.8033,117.5161 C168.1813,118.0291 168.7453,118.2851 169.4943,118.2851 C170.1843,118.2851 170.7103,118.0151 171.0703,117.4761 C171.2623,117.1921 171.4053,116.8181 171.4993,116.3561 L172.4283,116.3561 C172.3453,117.0961 172.0743,117.7171 171.6133,118.2181 C171.0613,118.8221 170.3163,119.1241 169.3793,119.1241 C168.5713,119.1241 167.8923,118.8761 167.3433,118.3811 C166.6213,117.7261 166.2593,116.7151 166.2593,115.3471 C166.2593,114.3091 166.5303,113.4581 167.0733,112.7931 C167.6603,112.0711 168.4703,111.7101 169.5013,111.7101 C170.3823,111.7101 171.0653,111.9451 171.5513,112.4141" id="Fill-402" fill="#FFFFFF"></path>
        <polygon id="Fill-404" fill="#FFFFFF" points="176.385 118.937 177.348 118.937 177.348 111.902 176.385 111.902"></polygon>
        <polygon id="Fill-405" fill="#FFFFFF" points="181.6075 111.9017 186.7115 111.9017 186.7115 112.7637 182.5365 112.7637 182.5365 114.8997 186.3965 114.8997 186.3965 115.7137 182.5365 115.7137 182.5365 118.0987 186.7845 118.0987 186.7845 118.9367 181.6075 118.9367"></polygon>
        <g id="Group-412" transform="translate(189.826000, 111.087000)" fill="#FFFFFF">
            <path d="M0.812,0.8147 L4.01,0.8147 C4.537,0.8147 4.97,0.8927 5.312,1.0497 C5.961,1.3497 6.286,1.9037 6.286,2.7107 C6.286,3.1327 6.199,3.4777 6.025,3.7457 C5.851,4.0137 5.607,4.2297 5.294,4.3917 C5.569,4.5037 5.776,4.6507 5.914,4.8327 C6.053,5.0147 6.131,5.3097 6.147,5.7187 L6.18,6.6617 C6.19,6.9307 6.212,7.1297 6.248,7.2607 C6.305,7.4837 6.407,7.6277 6.554,7.6917 L6.554,7.8497 L5.385,7.8497 C5.354,7.7897 5.328,7.7107 5.309,7.6147 C5.29,7.5197 5.273,7.3347 5.261,7.0597 L5.203,5.8867 C5.182,5.4267 5.016,5.1187 4.706,4.9617 C4.529,4.8757 4.251,4.8327 3.873,4.8327 L1.765,4.8327 L1.765,7.8497 L0.812,7.8497 L0.812,0.8147 Z M3.907,4.0377 C4.342,4.0377 4.686,3.9487 4.939,3.7697 C5.192,3.5907 5.318,3.2687 5.318,2.8017 C5.318,2.3007 5.142,1.9597 4.788,1.7777 C4.598,1.6817 4.345,1.6337 4.029,1.6337 L1.765,1.6337 L1.765,4.0377 L3.907,4.0377 Z" id="Fill-406"></path>
            <path d="M16.1699,1.8204 C16.6369,2.4434 16.8689,3.2394 16.8689,4.2104 C16.8689,5.2604 16.6029,6.1334 16.0689,6.8294 C15.4439,7.6474 14.5509,8.0554 13.3919,8.0554 C12.3099,8.0554 11.4589,7.6984 10.8399,6.9834 C10.2869,6.2934 10.0109,5.4214 10.0109,4.3684 C10.0109,3.4164 10.2479,2.6024 10.7199,1.9254 C11.3259,1.0574 12.2239,0.6234 13.4109,0.6234 C14.6539,0.6234 15.5729,1.0224 16.1699,1.8204 M15.3299,6.3044 C15.7049,5.7024 15.8919,5.0094 15.8919,4.2264 C15.8919,3.3994 15.6759,2.7334 15.2439,2.2284 C14.8109,1.7234 14.2189,1.4704 13.4689,1.4704 C12.7409,1.4704 12.1469,1.7204 11.6869,2.2204 C11.2279,2.7214 10.9979,3.4584 10.9979,4.4334 C10.9979,5.2124 11.1949,5.8704 11.5889,6.4054 C11.9839,6.9404 12.6229,7.2084 13.5069,7.2084 C14.3469,7.2084 14.9549,6.9074 15.3299,6.3044" id="Fill-408"></path>
            <path d="M21.2368,5.5798 C21.2588,5.9788 21.3488,6.3028 21.5088,6.5518 C21.8128,7.0178 22.3498,7.2508 23.1188,7.2508 C23.4628,7.2508 23.7768,7.1998 24.0598,7.0978 C24.6068,6.8998 24.8808,6.5458 24.8808,6.0348 C24.8808,5.6518 24.7648,5.3788 24.5328,5.2158 C24.2978,5.0558 23.9298,4.9168 23.4288,4.7988 L22.5058,4.5838 C21.9028,4.4428 21.4758,4.2888 21.2258,4.1188 C20.7918,3.8248 20.5758,3.3868 20.5758,2.8018 C20.5758,2.1698 20.7888,1.6508 21.2138,1.2458 C21.6398,0.8408 22.2428,0.6378 23.0228,0.6378 C23.7398,0.6378 24.3498,0.8158 24.8518,1.1708 C25.3538,1.5278 25.6038,2.0968 25.6038,2.8788 L24.7088,2.8788 C24.6628,2.5018 24.5648,2.2128 24.4148,2.0118 C24.1358,1.6448 23.6638,1.4608 22.9958,1.4608 C22.4578,1.4608 22.0698,1.5788 21.8338,1.8158 C21.5988,2.0518 21.4808,2.3268 21.4808,2.6388 C21.4808,2.9838 21.6198,3.2358 21.8988,3.3958 C22.0808,3.4978 22.4938,3.6258 23.1368,3.7788 L24.0938,4.0038 C24.5538,4.1128 24.9098,4.2608 25.1608,4.4498 C25.5938,4.7778 25.8098,5.2558 25.8098,5.8818 C25.8098,6.6608 25.5338,7.2178 24.9808,7.5528 C24.4278,7.8878 23.7858,8.0558 23.0548,8.0558 C22.2018,8.0558 21.5338,7.8328 21.0508,7.3848 C20.5678,6.9418 20.3308,6.3398 20.3408,5.5798 L21.2368,5.5798 Z" id="Fill-410"></path>
        </g>
    </g>
</svg>